<svg width="441" height="410" viewBox="0 0 441 410" fill="none" xmlns="http://www.w3.org/2000/svg">
<g id="christmasTree">
<path id="bgmain" d="M404.9 259.418C371.252 316.948 307.099 366.721 233.171 368.924C100.171 372.885 -18.8052 221.521 2.48096 118.447C9.43276 84.791 33.8518 44.1101 70.869 30.9178C129.605 9.98516 161.386 79.1692 261.836 91.4472C351.919 102.459 393.158 54.9835 423.663 84.4433C457.857 117.466 436.065 206.131 404.9 259.418" fill="#EEF2F9"/>
<path id="bgasist" d="M341.796 4.35322C348.442 9.9476 351.432 20.3595 349.138 28.4846C340.724 58.2688 261.158 57.6729 255.005 57.5796C179.363 56.4317 117.753 17.7849 120.063 11.0764C122.306 4.56682 180.141 41.5272 253.608 23.5861C294.36 13.6352 325.203 -9.61587 341.796 4.3532" fill="#EDF2FA"/>
<path id="snowstar" d="M377.043 125.868C377.131 125.7 377.149 125.504 377.093 125.323C377.037 125.142 376.911 124.991 376.744 124.902L369.158 120.9L367.232 114.419L373.58 117.769C373.683 117.824 373.798 117.852 373.915 117.852C374.031 117.852 374.146 117.823 374.249 117.768C374.352 117.713 374.44 117.634 374.505 117.537C374.57 117.44 374.611 117.329 374.623 117.213L374.682 116.673C374.69 116.599 374.687 116.523 374.671 116.45L373.248 109.64L379.302 112.92L380.975 120.917C380.997 121.029 381.048 121.134 381.121 121.223C381.222 121.347 381.362 121.433 381.519 121.468C381.675 121.503 381.839 121.485 381.983 121.416C382.128 121.347 382.245 121.231 382.316 121.087C382.387 120.944 382.408 120.78 382.375 120.623L380.951 113.812L383.082 114.967C383.018 115.266 383.024 115.575 383.101 115.871C383.179 116.167 383.324 116.44 383.526 116.67C385.274 118.808 388.598 116.095 386.848 113.955C386.672 113.73 386.451 113.546 386.2 113.412C385.948 113.279 385.671 113.2 385.387 113.18C385.103 113.161 384.818 113.201 384.551 113.299C384.283 113.397 384.039 113.549 383.835 113.748L381.587 112.529L388.379 110.429C388.469 110.402 388.553 110.357 388.626 110.297C388.698 110.237 388.758 110.164 388.802 110.08C388.846 109.997 388.874 109.906 388.882 109.813C388.891 109.719 388.881 109.625 388.853 109.535C388.826 109.445 388.78 109.361 388.72 109.289C388.66 109.217 388.586 109.157 388.503 109.113C388.42 109.069 388.329 109.043 388.235 109.034C388.141 109.026 388.047 109.036 387.957 109.064L379.827 111.577L373.884 108.357L380.677 106.257C380.788 106.222 380.89 106.161 380.972 106.078C381.054 105.995 381.115 105.894 381.149 105.782C381.183 105.671 381.19 105.552 381.168 105.438C381.146 105.323 381.096 105.216 381.023 105.125L380.682 104.702L380.679 104.698C380.632 104.641 380.577 104.592 380.515 104.553L374.666 100.726L381.523 98.6882L388.523 102.917C388.686 103.015 388.88 103.045 389.065 103C389.249 102.955 389.408 102.838 389.507 102.675C389.605 102.513 389.635 102.318 389.59 102.133C389.544 101.949 389.427 101.79 389.265 101.692L383.378 98.1377L386.178 97.3037C386.199 97.3324 386.212 97.3611 386.234 97.3887C387.982 99.527 391.308 96.8143 389.557 94.6724C388.198 93.0114 385.895 94.2835 385.758 95.9372L382.768 96.8251L385.892 90.3514C385.974 90.1806 385.985 89.9841 385.923 89.805C385.861 89.6259 385.73 89.479 385.559 89.3965C385.388 89.314 385.192 89.3027 385.013 89.365C384.834 89.4274 384.687 89.5584 384.604 89.7291L380.915 97.3767L374.252 99.3571L377.554 93.0976C377.608 92.9941 377.637 92.8788 377.636 92.7618C377.636 92.6448 377.607 92.5296 377.552 92.4263C377.499 92.3226 377.42 92.2341 377.323 92.1688C377.226 92.1036 377.115 92.0638 376.998 92.053L376.458 91.9943C376.384 91.9864 376.309 91.9904 376.236 92.0063L369.413 93.4315L372.693 87.3778L380.702 85.7025C380.794 85.6838 380.882 85.647 380.961 85.5943C381.039 85.5415 381.106 85.4737 381.158 85.3949C381.21 85.3162 381.245 85.2279 381.263 85.1352C381.281 85.0425 381.28 84.9473 381.26 84.8549C381.241 84.7626 381.204 84.675 381.15 84.5972C381.097 84.5193 381.029 84.4528 380.95 84.4015C380.87 84.3501 380.782 84.315 380.689 84.298C380.596 84.281 380.501 84.2826 380.409 84.3025L373.586 85.7289L374.829 83.435C375.242 83.4524 375.652 83.3518 376.01 83.1449C376.368 82.9381 376.659 82.6337 376.851 82.2671C377.042 81.9006 377.125 81.4872 377.09 81.0752C377.055 80.6633 376.903 80.2698 376.653 79.9409C374.904 77.8037 371.579 80.5152 373.33 82.656C373.389 82.7235 373.452 82.7871 373.52 82.8463L372.313 85.0779L370.216 78.2967C370.16 78.1155 370.034 77.9639 369.866 77.8753C369.699 77.7867 369.502 77.7684 369.321 77.8244C369.14 77.8804 368.988 78.0061 368.9 78.1739C368.811 78.3417 368.792 78.5378 368.848 78.7191L371.359 86.8358L368.138 92.7806L366.042 85.9993C366.004 85.8743 365.932 85.7624 365.834 85.6756C365.736 85.5889 365.616 85.5307 365.487 85.5075L364.933 85.407C364.79 85.3812 364.643 85.3994 364.511 85.459C364.379 85.5186 364.268 85.6169 364.192 85.7409L360.517 91.8269L358.572 85.2838L362.92 78.0838C363.018 77.9216 363.048 77.7272 363.002 77.5433C362.957 77.3595 362.84 77.2011 362.678 77.1031C362.516 77.0051 362.322 76.9754 362.138 77.0207C361.954 77.0659 361.796 77.1823 361.697 77.3443L358.021 83.4303L357.309 81.0346C357.546 80.8744 357.747 80.666 357.898 80.4229C358.049 80.1799 358.147 79.9077 358.185 79.6242C358.224 79.3407 358.202 79.0522 358.121 78.7777C358.041 78.5032 357.903 78.2488 357.717 78.0311C355.969 75.894 352.645 78.6067 354.396 80.7475C354.579 80.9885 354.816 81.1838 355.088 81.3179C355.36 81.452 355.659 81.5214 355.962 81.5205L356.62 83.739L350.356 80.7151C350.209 80.6446 350.043 80.6261 349.884 80.6628C349.726 80.6995 349.584 80.7892 349.484 80.917C349.383 81.0449 349.329 81.2032 349.33 81.366C349.331 81.5288 349.388 81.6863 349.491 81.8124C349.557 81.8926 349.64 81.9575 349.734 82.0027L357.171 85.5913L359.116 92.1357L352.852 89.1142C352.737 89.0584 352.61 89.0345 352.483 89.0448C352.356 89.0551 352.234 89.0993 352.129 89.1728L351.676 89.4899C351.558 89.5732 351.468 89.69 351.417 89.825C351.367 89.9601 351.358 90.1072 351.392 90.2474L353.081 97.0873L347.078 93.8348L345.078 85.7313C345.056 85.6394 345.016 85.5527 344.96 85.4763C344.905 85.3998 344.835 85.3351 344.754 85.286C344.674 85.2368 344.584 85.204 344.491 85.1897C344.397 85.1753 344.302 85.1796 344.21 85.2023C344.118 85.225 344.032 85.2656 343.956 85.3219C343.88 85.3781 343.816 85.4488 343.768 85.53C343.72 85.6111 343.688 85.701 343.674 85.7945C343.661 85.888 343.666 85.9833 343.69 86.0748L345.378 92.9146L343.362 91.8209C343.422 91.5242 343.413 91.2173 343.336 90.9246C343.258 90.6319 343.113 90.3611 342.913 90.1337C341.165 87.9966 337.84 90.7093 339.591 92.8512C339.768 93.0761 339.99 93.2612 340.244 93.3944C340.497 93.5277 340.775 93.606 341.061 93.6244C341.346 93.6428 341.632 93.6009 341.901 93.5012C342.169 93.4016 342.413 93.2466 342.617 93.0463L344.682 94.1627L338.055 96.477C337.966 96.5078 337.884 96.5559 337.814 96.6184C337.744 96.6808 337.687 96.7565 337.646 96.8411C337.605 96.9256 337.581 97.0174 337.576 97.1112C337.57 97.205 337.583 97.2989 337.614 97.3876C337.645 97.4763 337.693 97.558 337.756 97.6282C337.818 97.6983 337.894 97.7555 337.978 97.7964C338.063 97.8373 338.155 97.8611 338.249 97.8665C338.342 97.8719 338.436 97.8588 338.525 97.828L346.382 95.0853L352.384 98.3377L345.757 100.65C345.637 100.692 345.53 100.765 345.448 100.862C345.366 100.959 345.31 101.076 345.288 101.201L345.193 101.748C345.168 101.89 345.186 102.037 345.246 102.168C345.305 102.3 345.403 102.41 345.526 102.485L351.531 106.111L345.236 107.981L338.262 103.42C338.183 103.368 338.095 103.333 338.003 103.316C337.911 103.298 337.816 103.299 337.724 103.318C337.632 103.338 337.545 103.375 337.467 103.428C337.39 103.481 337.323 103.548 337.272 103.627C337.221 103.705 337.185 103.793 337.168 103.886C337.15 103.978 337.151 104.073 337.171 104.164C337.19 104.256 337.227 104.344 337.28 104.421C337.333 104.499 337.401 104.565 337.479 104.616L343.439 108.516L340.918 109.265C340.882 109.215 340.857 109.162 340.816 109.112C339.068 106.975 335.744 109.686 337.495 111.827C337.772 112.143 338.135 112.371 338.54 112.485C338.944 112.599 339.373 112.593 339.774 112.468C340.175 112.343 340.532 112.105 340.801 111.782C341.069 111.459 341.238 111.065 341.288 110.647L343.676 109.938L340.441 116.072C340.375 116.196 340.348 116.337 340.361 116.476C340.375 116.616 340.43 116.749 340.519 116.858C340.58 116.932 340.655 116.993 340.74 117.038C340.823 117.082 340.914 117.109 341.007 117.118C341.1 117.126 341.195 117.117 341.284 117.089C341.374 117.061 341.457 117.016 341.529 116.956C341.601 116.896 341.661 116.822 341.704 116.739L345.593 109.368L351.963 107.475L348.898 113.824C348.843 113.939 348.819 114.067 348.829 114.194C348.839 114.321 348.884 114.443 348.957 114.547L349.277 115.001C349.285 115.016 349.296 115.03 349.308 115.042C349.393 115.147 349.507 115.225 349.635 115.268C349.763 115.311 349.9 115.316 350.032 115.284L356.861 113.599L353.608 119.602L345.516 121.599C345.424 121.621 345.339 121.662 345.263 121.717C345.187 121.773 345.123 121.843 345.075 121.924C345.027 122.004 344.994 122.093 344.981 122.186C344.967 122.279 344.971 122.374 344.994 122.465C345.019 122.568 345.066 122.664 345.134 122.745C345.219 122.85 345.333 122.929 345.461 122.971C345.59 123.014 345.728 123.02 345.859 122.987L352.687 121.302L351.645 123.227C349.996 123.035 348.291 125.034 349.651 126.699C351.399 128.836 354.724 126.123 352.973 123.982C352.951 123.955 352.924 123.936 352.901 123.911L353.945 121.984L356.262 128.623C356.293 128.711 356.341 128.793 356.404 128.863C356.466 128.933 356.542 128.99 356.626 129.031C356.711 129.072 356.803 129.096 356.896 129.101C356.99 129.107 357.084 129.094 357.172 129.063C357.261 129.032 357.343 128.984 357.413 128.921C357.483 128.859 357.54 128.783 357.581 128.699C357.622 128.614 357.645 128.522 357.651 128.429C357.656 128.335 357.643 128.241 357.612 128.153L354.867 120.284L358.118 114.28L360.436 120.92C360.474 121.029 360.538 121.128 360.622 121.207C360.706 121.286 360.809 121.343 360.92 121.374C361.031 121.405 361.148 121.408 361.261 121.384C361.374 121.36 361.479 121.309 361.568 121.235L361.983 120.889C362.038 120.843 362.085 120.79 362.125 120.731L365.9 114.959L367.862 121.562L363.424 128.346C363.341 128.473 363.3 128.624 363.308 128.775C363.316 128.927 363.372 129.072 363.468 129.19C363.514 129.247 363.569 129.296 363.631 129.336C363.71 129.388 363.798 129.423 363.89 129.441C363.982 129.458 364.077 129.457 364.169 129.438C364.261 129.418 364.348 129.381 364.426 129.328C364.503 129.275 364.57 129.207 364.621 129.128L368.396 123.358L369.116 125.778C368.883 125.94 368.687 126.149 368.539 126.392C368.392 126.634 368.297 126.905 368.26 127.186C368.224 127.467 368.247 127.753 368.328 128.025C368.409 128.297 368.546 128.549 368.73 128.765C370.478 130.905 373.804 128.191 372.053 126.05C371.867 125.805 371.626 125.607 371.349 125.473C371.072 125.339 370.768 125.272 370.46 125.278L369.728 122.818L376.076 126.167C376.244 126.256 376.44 126.274 376.621 126.218C376.803 126.162 376.954 126.036 377.043 125.868L377.043 125.868ZM373.094 115.897L366.662 112.502L364.385 104.838L371.599 108.747L373.094 115.897ZM379.008 105.276L372.124 107.404L365.066 103.58L372.87 101.26L379.008 105.276ZM375.681 93.5823L372.334 99.9268L364.658 102.209L368.52 95.0805L375.681 93.5823ZM364.938 87.2737L367.185 94.5395L363.399 101.527L361.068 93.6815L364.938 87.2737ZM352.994 90.7714L359.667 93.9891L362.029 101.935L354.781 98.0073L352.994 90.7714ZM347.03 101.72L354.084 99.2577L361.348 103.192L353.384 105.559L347.03 101.72ZM350.556 113.682L353.816 106.924L361.753 104.565L357.781 111.899L350.556 113.682ZM361.373 119.266L359.04 112.58L363.012 105.244L365.366 113.162L361.373 119.266Z" fill="white"/>
<path id="snowstar_2" d="M96.7861 245.628C96.9246 245.365 96.9531 245.058 96.8654 244.774C96.7777 244.49 96.5809 244.252 96.3182 244.113L84.425 237.839L81.4048 227.676L91.357 232.93C91.5189 233.015 91.6991 233.059 91.882 233.059C92.0649 233.058 92.245 233.013 92.4064 232.927C92.5679 232.841 92.706 232.717 92.8086 232.566C92.9112 232.414 92.9753 232.24 92.9952 232.058L93.0861 231.211C93.0979 231.095 93.0923 230.977 93.0694 230.862L90.8377 220.182L100.33 225.326L102.952 237.864C102.989 238.04 103.067 238.204 103.181 238.343C103.339 238.538 103.559 238.674 103.804 238.73C104.05 238.785 104.306 238.756 104.533 238.648C104.76 238.54 104.944 238.358 105.056 238.133C105.167 237.907 105.2 237.651 105.148 237.405L102.915 226.725L106.256 228.536C106.156 229.004 106.167 229.49 106.288 229.954C106.409 230.417 106.637 230.846 106.953 231.206C109.693 234.557 114.908 230.305 112.163 226.948C111.887 226.596 111.541 226.306 111.146 226.097C110.751 225.888 110.317 225.764 109.872 225.734C109.426 225.703 108.979 225.767 108.559 225.92C108.14 226.073 107.757 226.313 107.436 226.623L103.912 224.715L114.566 221.422C114.706 221.378 114.837 221.307 114.95 221.213C115.064 221.119 115.157 221.003 115.226 220.873C115.295 220.743 115.337 220.6 115.351 220.453C115.364 220.307 115.349 220.159 115.305 220.018C115.261 219.877 115.191 219.747 115.096 219.633C115.002 219.52 114.887 219.426 114.756 219.358C114.626 219.289 114.483 219.247 114.337 219.233C114.19 219.22 114.042 219.235 113.901 219.279L101.155 223.22L91.8346 218.171L102.486 214.877C102.66 214.823 102.819 214.727 102.948 214.597C103.077 214.468 103.173 214.309 103.226 214.134C103.28 213.959 103.29 213.773 103.255 213.594C103.22 213.414 103.142 213.245 103.028 213.103L102.494 212.44L102.488 212.434C102.415 212.345 102.329 212.268 102.233 212.205L93.0623 206.206L103.813 203.011L114.789 209.641C115.044 209.794 115.348 209.84 115.637 209.769C115.925 209.697 116.173 209.515 116.327 209.261C116.481 209.007 116.528 208.702 116.457 208.413C116.387 208.125 116.205 207.876 115.951 207.722L106.72 202.145L111.113 200.841C111.145 200.884 111.165 200.93 111.201 200.973C113.941 204.326 119.154 200.072 116.409 196.714C114.278 194.108 110.668 196.104 110.451 198.697L105.765 200.09L110.663 189.938C110.791 189.67 110.808 189.362 110.71 189.082C110.611 188.802 110.406 188.572 110.139 188.444C109.871 188.315 109.564 188.297 109.284 188.394C109.003 188.492 108.773 188.697 108.643 188.964L102.859 200.954L92.4112 204.059L97.5902 194.243C97.6756 194.081 97.72 193.901 97.7194 193.718C97.7188 193.535 97.6731 193.355 97.5866 193.194C97.5026 193.031 97.3791 192.891 97.2273 192.789C97.0755 192.686 96.9003 192.623 96.7178 192.606L95.8718 192.515C95.7552 192.503 95.6373 192.508 95.5224 192.532L84.8234 194.768L89.9665 185.274L102.525 182.65C102.816 182.589 103.071 182.415 103.234 182.166C103.397 181.917 103.454 181.614 103.393 181.322C103.332 181.031 103.158 180.776 102.909 180.613C102.66 180.451 102.357 180.393 102.065 180.454L91.3677 182.691L93.3158 179.093C95.8119 179.157 98.2339 176.133 96.1745 173.614C93.4343 170.262 88.2206 174.516 90.9657 177.872C91.0589 177.978 91.1584 178.078 91.2636 178.171L89.3694 181.668L86.0823 171.036C85.9942 170.752 85.7969 170.514 85.5337 170.375C85.2704 170.237 84.9629 170.208 84.6787 170.296C84.3945 170.384 84.1569 170.582 84.0182 170.845C83.8795 171.108 83.8511 171.416 83.9392 171.7L87.8749 184.427L82.8251 193.746L79.538 183.116C79.4777 182.919 79.3645 182.744 79.2108 182.607C79.0572 182.471 78.869 182.38 78.6669 182.344L77.7981 182.186C77.5746 182.145 77.3441 182.173 77.137 182.267C76.9299 182.36 76.7561 182.514 76.6386 182.709L70.8757 192.253L67.8255 181.992L74.6439 170.702C74.7201 170.576 74.7707 170.436 74.7929 170.29C74.8151 170.145 74.8084 169.996 74.7732 169.853C74.7379 169.71 74.6749 169.576 74.5876 169.457C74.5004 169.338 74.3906 169.238 74.2646 169.162C74.1385 169.086 73.9987 169.035 73.8531 169.013C73.7075 168.991 73.559 168.997 73.416 169.033C73.273 169.068 73.1383 169.131 73.0196 169.218C72.901 169.305 72.8007 169.415 72.7245 169.541L66.9616 179.084L65.8451 175.329C66.2168 175.078 66.5312 174.751 66.7679 174.37C67.0046 173.989 67.1582 173.562 67.2186 173.118C67.2791 172.674 67.245 172.221 67.1186 171.791C66.9922 171.361 66.7764 170.962 66.4853 170.62C63.7451 167.268 58.5314 171.522 61.2765 174.878C61.5638 175.257 61.9351 175.563 62.3613 175.774C62.7874 175.985 63.2566 176.093 63.7319 176.091L64.7646 179.568L54.9416 174.828C54.6739 174.7 54.3666 174.684 54.0868 174.782C53.807 174.88 53.5776 175.086 53.4488 175.353C53.32 175.62 53.3022 175.927 53.3995 176.207C53.4967 176.488 53.701 176.718 53.9676 176.848L65.6286 182.475L68.6788 192.735L58.8558 187.997C58.6762 187.91 58.4767 187.872 58.2778 187.889C58.079 187.905 57.8881 187.974 57.725 188.089L57.013 188.588C56.8276 188.718 56.686 188.901 56.6065 189.113C56.5271 189.325 56.5136 189.556 56.5678 189.776L59.216 200.5L49.8045 195.401L46.6658 182.694C46.631 182.551 46.5682 182.416 46.4811 182.297C46.3939 182.178 46.2841 182.077 46.1579 182C46.0318 181.924 45.8917 181.873 45.7458 181.851C45.5999 181.828 45.4511 181.835 45.3078 181.87C45.1645 181.906 45.0296 181.969 44.9109 182.057C44.7921 182.144 44.6918 182.255 44.6158 182.381C44.5397 182.507 44.4894 182.648 44.4677 182.794C44.4459 182.94 44.4532 183.088 44.4892 183.232L47.1373 193.956L43.9747 192.243C44.0704 191.778 44.0569 191.297 43.9352 190.838C43.8135 190.379 43.587 189.954 43.2734 189.598C40.532 186.246 35.3183 190.499 38.0634 193.856C38.3405 194.209 38.689 194.5 39.0861 194.709C39.4832 194.918 39.9199 195.041 40.3678 195.07C40.8157 195.099 41.2646 195.033 41.6853 194.877C42.1059 194.72 42.4889 194.477 42.8091 194.163L46.0448 195.916L35.6533 199.543C35.5143 199.591 35.3863 199.667 35.2764 199.765C35.1666 199.863 35.0772 199.982 35.0132 200.114C34.9493 200.247 34.9121 200.391 34.9037 200.538C34.8954 200.685 34.9161 200.832 34.9647 200.971C35.0132 201.11 35.0887 201.238 35.1867 201.348C35.2848 201.458 35.4035 201.547 35.5361 201.611C35.6687 201.675 35.8126 201.712 35.9596 201.721C36.1066 201.729 36.2538 201.708 36.3928 201.66L48.7108 197.36L58.1246 202.459L47.732 206.086C47.5436 206.152 47.3762 206.267 47.2469 206.419C47.1176 206.571 47.031 206.754 46.9961 206.951L46.8453 207.808C46.8064 208.031 46.8356 208.26 46.9291 208.466C47.0226 208.672 47.1761 208.845 47.3694 208.963L56.7856 214.649L46.9135 217.582L35.9788 210.428C35.7298 210.266 35.4267 210.209 35.1359 210.271C34.8451 210.332 34.5905 210.506 34.4279 210.754C34.2652 211.003 34.2079 211.306 34.2685 211.597C34.3291 211.888 34.5027 212.143 34.7511 212.306L44.0979 218.419L40.1431 219.594C40.0881 219.514 40.0485 219.433 39.9839 219.354C37.2437 216.003 32.0312 220.255 34.775 223.613C36.8703 226.176 40.3991 224.291 40.7246 221.762L44.47 220.649L39.394 230.267C39.2913 230.462 39.2483 230.683 39.2705 230.903C39.2926 231.122 39.3788 231.33 39.5184 231.501C39.6136 231.616 39.7308 231.712 39.863 231.782C40.1263 231.921 40.4339 231.949 40.7182 231.861C41.0025 231.773 41.2403 231.576 41.3792 231.313L47.4759 219.755L57.4617 216.787L52.6573 226.744C52.5702 226.924 52.5328 227.123 52.5488 227.322C52.5648 227.521 52.6336 227.712 52.7482 227.875L53.2484 228.587C53.264 228.611 53.2807 228.631 53.2975 228.654C53.4322 228.818 53.6105 228.94 53.8119 229.007C54.0133 229.074 54.2294 229.083 54.4355 229.032L65.1416 226.39L60.0416 235.801L47.3539 238.934C47.2109 238.969 47.0764 239.032 46.9578 239.12C46.8393 239.207 46.739 239.317 46.6629 239.443C46.5868 239.569 46.5363 239.709 46.5142 239.854C46.4921 240 46.4989 240.148 46.5342 240.291C46.5746 240.452 46.6498 240.602 46.7544 240.731C46.8887 240.896 47.0669 241.019 47.2684 241.086C47.4698 241.153 47.6862 241.162 47.8924 241.111L58.5973 238.469L56.9627 241.485C54.3792 241.186 51.7048 244.321 53.8383 246.93C56.5786 250.282 61.7923 246.028 59.0472 242.671C59.0113 242.628 58.9706 242.598 58.9335 242.558L60.5705 239.537L64.2035 249.948C64.302 250.228 64.5075 250.457 64.775 250.586C65.0426 250.715 65.3502 250.732 65.6306 250.635C65.911 250.537 66.1411 250.332 66.2706 250.065C66.4001 249.798 66.4184 249.49 66.3215 249.21L62.0148 236.87L67.1136 227.459L70.7465 237.869C70.8059 238.04 70.906 238.195 71.0382 238.319C71.1703 238.443 71.3305 238.533 71.5052 238.581C71.6798 238.63 71.8635 238.635 72.0407 238.597C72.2178 238.559 72.3831 238.478 72.5223 238.362L73.1744 237.821C73.2601 237.75 73.3347 237.666 73.3958 237.572L79.3155 228.522L82.3932 238.876L75.4324 249.513C75.3022 249.713 75.2388 249.949 75.2515 250.187C75.2642 250.425 75.3523 250.652 75.503 250.837C75.5754 250.926 75.6615 251.003 75.7579 251.065C75.8811 251.146 76.019 251.202 76.1636 251.229C76.3083 251.257 76.457 251.255 76.6011 251.225C76.7453 251.195 76.8821 251.137 77.0037 251.054C77.1253 250.971 77.2294 250.864 77.3099 250.741L83.2296 241.69L84.358 245.488C83.9925 245.742 83.6842 246.07 83.4532 246.45C83.2221 246.83 83.0734 247.255 83.0166 247.696C82.9598 248.137 82.9961 248.586 83.1233 249.012C83.2504 249.438 83.4656 249.834 83.7549 250.172C86.4952 253.523 91.7088 249.271 88.9638 245.914C88.6724 245.529 88.2941 245.219 87.8599 245.009C87.4256 244.798 86.9477 244.693 86.4652 244.703L85.3189 240.845L95.2724 246.097C95.4025 246.166 95.545 246.208 95.6915 246.222C95.838 246.235 95.9858 246.22 96.1264 246.176C96.267 246.133 96.3976 246.062 96.5108 245.968C96.6239 245.874 96.7175 245.758 96.7861 245.628V245.628ZM90.596 229.992L80.5109 224.671L76.939 212.653L88.2518 218.782L90.596 229.992ZM99.8697 213.339L89.0762 216.676L78.0088 210.68L90.2454 207.042L99.8697 213.339ZM94.6525 195.005L89.4042 204.953L77.3686 208.529L83.4235 197.353L94.6525 195.005ZM77.8089 185.112L81.3305 196.506L75.3953 207.462L71.7397 195.16L77.8089 185.112ZM59.0795 190.596L69.5427 195.643L73.245 208.1L61.8819 201.944L59.0795 190.596ZM49.7267 207.766L60.7894 203.904L72.1776 210.073L59.6909 213.784L49.7267 207.766ZM55.2551 226.521L60.3694 215.923L72.8154 212.223L66.5858 223.724L55.2551 226.521ZM72.2172 235.276L68.5579 224.791L74.7875 213.292L78.4779 225.707L72.2172 235.276Z" fill="white"/>
<path id="snowstar_3" d="M157.043 129.87C157.131 129.702 157.149 129.506 157.093 129.325C157.037 129.143 156.911 128.992 156.744 128.903L149.158 124.902L147.232 118.421L153.58 121.771C153.683 121.825 153.798 121.853 153.915 121.853C154.031 121.853 154.146 121.824 154.249 121.769C154.352 121.714 154.44 121.634 154.505 121.538C154.57 121.441 154.611 121.33 154.623 121.214L154.682 120.674C154.69 120.599 154.687 120.524 154.671 120.45L153.248 113.64L159.302 116.92L160.975 124.918C160.998 125.03 161.048 125.135 161.121 125.223C161.222 125.347 161.362 125.434 161.518 125.469C161.675 125.504 161.838 125.485 161.983 125.417C162.127 125.348 162.245 125.232 162.316 125.089C162.387 124.945 162.408 124.782 162.375 124.625L160.951 117.813L163.082 118.968C163.018 119.266 163.024 119.576 163.102 119.872C163.179 120.168 163.324 120.442 163.526 120.672C165.274 122.809 168.599 120.097 166.848 117.955C166.672 117.731 166.451 117.546 166.2 117.413C165.948 117.28 165.671 117.201 165.387 117.181C165.103 117.162 164.818 117.202 164.551 117.3C164.283 117.398 164.039 117.551 163.835 117.749L161.588 116.531L168.38 114.431C168.469 114.404 168.553 114.359 168.626 114.299C168.698 114.239 168.758 114.165 168.802 114.082C168.846 113.999 168.873 113.908 168.882 113.814C168.891 113.721 168.881 113.626 168.853 113.536C168.826 113.446 168.78 113.363 168.72 113.29C168.66 113.218 168.586 113.158 168.503 113.114C168.42 113.071 168.329 113.044 168.235 113.035C168.141 113.027 168.047 113.037 167.957 113.065L159.827 115.578L153.884 112.359L160.677 110.257C160.788 110.223 160.89 110.162 160.972 110.079C161.054 109.996 161.115 109.895 161.149 109.783C161.183 109.671 161.19 109.553 161.168 109.438C161.146 109.324 161.096 109.216 161.023 109.125L160.682 108.703L160.679 108.699C160.633 108.642 160.578 108.593 160.515 108.553L154.666 104.728L161.523 102.69L168.523 106.918C168.604 106.966 168.693 106.999 168.786 107.013C168.879 107.027 168.973 107.023 169.065 107.001C169.156 106.978 169.242 106.938 169.318 106.883C169.393 106.827 169.457 106.757 169.506 106.677C169.555 106.596 169.587 106.507 169.602 106.414C169.616 106.321 169.612 106.226 169.589 106.135C169.567 106.044 169.527 105.958 169.471 105.882C169.415 105.806 169.345 105.742 169.265 105.694L163.378 102.138L166.178 101.306C166.199 101.333 166.212 101.362 166.234 101.391C167.982 103.528 171.308 100.815 169.557 98.6742C168.198 97.0121 165.895 98.2841 165.758 99.939L162.769 100.827L165.892 94.352C165.974 94.1813 165.986 93.9848 165.923 93.8057C165.861 93.6266 165.73 93.4796 165.559 93.3971C165.388 93.3146 165.192 93.3033 165.013 93.3657C164.834 93.428 164.687 93.559 164.604 93.7298L160.915 101.377L154.252 103.358L157.554 97.0982C157.608 96.995 157.637 96.8799 157.637 96.763C157.636 96.6462 157.608 96.5312 157.553 96.4281C157.499 96.3243 157.42 96.2356 157.323 96.1701C157.227 96.1047 157.115 96.0646 156.999 96.0536L156.458 95.9962C156.384 95.9878 156.309 95.9914 156.236 96.0069L149.413 97.4333L152.693 91.3784L160.702 89.7032C160.794 89.6839 160.881 89.6467 160.959 89.5938C161.036 89.5408 161.103 89.4731 161.154 89.3945C161.206 89.3159 161.241 89.2279 161.258 89.1356C161.276 89.0433 161.275 88.9485 161.256 88.8565C161.236 88.7646 161.199 88.6774 161.146 88.5998C161.093 88.5223 161.025 88.4559 160.947 88.4045C160.868 88.3531 160.78 88.3177 160.688 88.3003C160.596 88.2829 160.501 88.2838 160.409 88.3031L153.586 89.7307L154.829 87.4355C155.242 87.453 155.652 87.3524 156.01 87.1456C156.368 86.9388 156.66 86.6344 156.851 86.2678C157.042 85.9012 157.125 85.4878 157.09 85.0758C157.055 84.6638 156.903 84.2704 156.653 83.9414C154.904 81.8043 151.579 84.5158 153.33 86.6566C153.389 86.7238 153.452 86.7873 153.519 86.8468L152.313 89.0785L150.216 82.2985C150.16 82.1171 150.034 81.9654 149.867 81.8768C149.699 81.7882 149.502 81.7698 149.321 81.8259C149.14 81.8819 148.988 82.0077 148.899 82.1755C148.811 82.3434 148.792 82.5396 148.848 82.7209L151.359 90.8376L148.138 96.7812L146.042 90.0012C146.004 89.8761 145.931 89.7641 145.834 89.6772C145.736 89.5903 145.616 89.5318 145.487 89.5081L144.933 89.4088C144.79 89.3824 144.643 89.4001 144.511 89.4596C144.379 89.519 144.267 89.6173 144.192 89.7415L140.516 95.8287L138.572 89.2844L142.92 82.0844C143.018 81.9222 143.048 81.7277 143.003 81.5437C142.957 81.3596 142.841 81.2012 142.679 81.1031C142.516 81.005 142.322 80.9754 142.138 81.0207C141.954 81.0661 141.795 81.1827 141.697 81.3448L138.021 87.4308L137.309 85.0364C137.546 84.876 137.747 84.6674 137.898 84.4242C138.049 84.1811 138.146 83.9088 138.185 83.6253C138.223 83.3417 138.202 83.0532 138.121 82.7786C138.041 82.504 137.903 82.2495 137.717 82.0317C135.969 79.8946 132.645 82.6073 134.396 84.7492C134.579 84.9901 134.817 85.1852 135.088 85.3193C135.36 85.4534 135.659 85.5229 135.962 85.5222L136.62 87.7396L130.356 84.7157C130.209 84.6452 130.043 84.6267 129.884 84.6634C129.726 84.7001 129.584 84.7898 129.484 84.9176C129.383 85.0454 129.329 85.2038 129.33 85.3666C129.331 85.5294 129.388 85.6868 129.491 85.813C129.557 85.8935 129.64 85.9585 129.734 86.0033L137.171 89.5931L139.116 96.1363L132.852 93.1148C132.737 93.0593 132.61 93.0355 132.483 93.0458C132.356 93.0562 132.234 93.1002 132.129 93.1734L131.676 93.4917C131.558 93.5747 131.468 93.6912 131.417 93.8261C131.367 93.961 131.358 94.108 131.392 94.248L133.081 101.088L127.078 97.8366L125.078 89.7331C125.055 89.6417 125.015 89.5555 124.96 89.4795C124.904 89.4035 124.834 89.3393 124.754 89.2904C124.673 89.2416 124.584 89.2091 124.491 89.1949C124.398 89.1806 124.303 89.1849 124.212 89.2074C124.12 89.2299 124.034 89.2703 123.959 89.3261C123.883 89.382 123.819 89.4523 123.77 89.5329C123.722 89.6136 123.69 89.703 123.676 89.7961C123.662 89.8892 123.667 89.9841 123.69 90.0754L125.378 96.9152L123.362 95.8227C123.422 95.5259 123.414 95.2191 123.336 94.9264C123.258 94.6336 123.113 94.3629 122.913 94.1355C121.165 91.9971 117.841 94.7111 119.591 96.8518C119.768 97.0768 119.99 97.262 120.243 97.3953C120.497 97.5287 120.775 97.6071 121.061 97.6255C121.346 97.6439 121.633 97.6018 121.901 97.5021C122.169 97.4024 122.413 97.2473 122.617 97.0468L124.682 98.1645L118.055 100.477C117.966 100.508 117.884 100.556 117.814 100.619C117.744 100.681 117.687 100.757 117.646 100.842C117.605 100.926 117.581 101.018 117.576 101.112C117.57 101.205 117.583 101.299 117.614 101.388C117.645 101.477 117.693 101.559 117.756 101.629C117.818 101.699 117.894 101.756 117.978 101.797C118.063 101.838 118.155 101.862 118.249 101.867C118.342 101.872 118.436 101.859 118.525 101.828L126.382 99.0858L132.384 102.338L125.757 104.65C125.637 104.692 125.531 104.766 125.448 104.863C125.366 104.959 125.311 105.076 125.288 105.202L125.192 105.749C125.168 105.891 125.186 106.037 125.246 106.169C125.305 106.3 125.403 106.411 125.526 106.486L131.53 110.111L125.236 111.982L118.262 107.42C118.183 107.369 118.095 107.333 118.003 107.316C117.91 107.299 117.816 107.3 117.724 107.319C117.632 107.338 117.544 107.375 117.467 107.428C117.389 107.481 117.323 107.549 117.271 107.628C117.22 107.707 117.185 107.795 117.167 107.887C117.15 107.979 117.151 108.074 117.17 108.166C117.189 108.258 117.227 108.345 117.28 108.423C117.333 108.5 117.4 108.567 117.479 108.618L123.439 112.517L120.918 113.266C120.882 113.215 120.857 113.164 120.816 113.114C119.068 110.975 115.744 113.688 117.495 115.829C117.772 116.144 118.135 116.373 118.54 116.486C118.944 116.6 119.373 116.594 119.774 116.469C120.176 116.344 120.532 116.106 120.801 115.782C121.069 115.459 121.239 115.065 121.288 114.648L123.676 113.938L120.441 120.072C120.375 120.196 120.348 120.337 120.361 120.477C120.375 120.617 120.43 120.749 120.518 120.858C120.579 120.933 120.654 120.995 120.74 121.039C120.823 121.083 120.914 121.11 121.007 121.118C121.1 121.127 121.195 121.117 121.284 121.089C121.374 121.062 121.457 121.016 121.529 120.956C121.601 120.896 121.661 120.823 121.704 120.74L125.593 113.369L131.963 111.476L128.898 117.826C128.843 117.941 128.819 118.068 128.829 118.195C128.839 118.322 128.884 118.444 128.957 118.548L129.277 119.002C129.286 119.017 129.296 119.031 129.308 119.044C129.393 119.148 129.507 119.226 129.635 119.269C129.763 119.311 129.9 119.317 130.032 119.285L136.861 117.6L133.608 123.602L125.516 125.599C125.424 125.622 125.339 125.662 125.263 125.718C125.187 125.774 125.124 125.844 125.075 125.924C125.027 126.005 124.995 126.094 124.981 126.187C124.967 126.28 124.971 126.374 124.994 126.466C125.019 126.568 125.066 126.664 125.134 126.746C125.219 126.851 125.333 126.929 125.461 126.972C125.59 127.015 125.728 127.02 125.859 126.987L132.687 125.302L131.645 127.228C129.996 127.036 128.291 129.035 129.651 130.699C131.399 132.836 134.724 130.124 132.973 127.983C132.951 127.955 132.924 127.937 132.901 127.911L133.945 125.985L136.262 132.623C136.293 132.712 136.341 132.794 136.403 132.864C136.466 132.935 136.541 132.992 136.626 133.033C136.711 133.074 136.803 133.098 136.896 133.103C136.99 133.109 137.084 133.096 137.173 133.065C137.262 133.034 137.344 132.986 137.414 132.923C137.484 132.861 137.541 132.785 137.582 132.7C137.623 132.615 137.646 132.524 137.652 132.43C137.657 132.336 137.643 132.242 137.612 132.153L134.867 124.284L138.118 118.281L140.436 124.921C140.474 125.03 140.538 125.128 140.622 125.207C140.706 125.286 140.808 125.343 140.92 125.375C141.031 125.406 141.148 125.409 141.261 125.385C141.374 125.361 141.479 125.31 141.568 125.237L141.983 124.89C142.038 124.844 142.086 124.791 142.125 124.732L145.9 118.96L147.862 125.562L143.423 132.347C143.34 132.474 143.3 132.624 143.308 132.776C143.316 132.928 143.372 133.073 143.468 133.191C143.514 133.248 143.569 133.297 143.631 133.337C143.71 133.388 143.798 133.424 143.89 133.441C143.982 133.459 144.077 133.458 144.169 133.438C144.261 133.419 144.348 133.382 144.426 133.329C144.503 133.276 144.57 133.208 144.621 133.13L148.396 127.358L149.116 129.779C148.883 129.941 148.687 130.15 148.539 130.392C148.392 130.635 148.297 130.906 148.26 131.187C148.224 131.469 148.247 131.755 148.328 132.027C148.409 132.299 148.546 132.551 148.73 132.767C150.478 134.905 153.804 132.193 152.053 130.051C151.867 129.806 151.626 129.608 151.349 129.474C151.072 129.34 150.768 129.273 150.46 129.279L149.728 126.82L156.076 130.169C156.244 130.258 156.44 130.276 156.621 130.22C156.803 130.164 156.954 130.038 157.043 129.87L157.043 129.87ZM153.094 119.897L146.662 116.504L144.385 108.838L151.599 112.748L153.094 119.897ZM159.008 109.276L152.124 111.405L145.066 107.582L152.87 105.26L159.008 109.276ZM155.681 97.5841L152.334 103.929L144.658 106.209L148.521 99.0811L155.681 97.5841ZM144.938 91.2743L147.185 98.5414L143.399 105.528L141.068 97.6822L144.938 91.2743ZM132.994 94.7721L139.667 97.991L142.029 105.937L134.781 102.009L132.994 94.7721ZM127.031 105.722L134.085 103.26L141.348 107.193L133.385 109.56L127.031 105.722ZM130.556 117.682L133.817 110.925L141.754 108.565L137.781 115.9L130.556 117.682ZM141.373 123.267L139.04 116.58L143.013 109.246L145.366 117.164L141.373 123.267Z" fill="white"/>
<path id="snowstar_4" d="M375.043 229.868C375.131 229.7 375.149 229.504 375.093 229.323C375.037 229.141 374.911 228.99 374.744 228.901L367.158 224.899L365.232 218.419L371.58 221.769C371.683 221.823 371.798 221.851 371.915 221.851C372.031 221.85 372.146 221.821 372.249 221.767C372.352 221.712 372.44 221.632 372.505 221.535C372.57 221.439 372.611 221.328 372.623 221.212L372.682 220.672C372.69 220.597 372.687 220.522 372.671 220.448L371.248 213.638L377.302 216.918L378.975 224.916C378.998 225.028 379.048 225.133 379.121 225.221C379.222 225.345 379.362 225.432 379.518 225.467C379.675 225.502 379.838 225.483 379.983 225.414C380.127 225.345 380.245 225.23 380.316 225.086C380.387 224.943 380.408 224.78 380.375 224.623L378.951 217.811L381.082 218.965C381.018 219.264 381.024 219.574 381.102 219.87C381.179 220.166 381.324 220.44 381.526 220.669C383.274 222.807 386.599 220.095 384.848 217.953C384.672 217.729 384.451 217.544 384.2 217.411C383.948 217.278 383.671 217.199 383.387 217.179C383.103 217.16 382.818 217.2 382.551 217.298C382.283 217.396 382.039 217.549 381.835 217.747L379.588 216.529L386.38 214.429C386.469 214.402 386.553 214.356 386.626 214.297C386.698 214.237 386.758 214.163 386.802 214.08C386.846 213.997 386.873 213.906 386.882 213.812C386.891 213.718 386.881 213.624 386.853 213.534C386.825 213.444 386.78 213.361 386.72 213.288C386.66 213.216 386.586 213.156 386.503 213.112C386.42 213.069 386.329 213.042 386.235 213.033C386.141 213.025 386.047 213.035 385.957 213.063L377.827 215.575L371.884 212.356L378.677 210.255C378.788 210.221 378.89 210.159 378.972 210.077C379.054 209.994 379.115 209.892 379.149 209.781C379.183 209.669 379.19 209.551 379.168 209.436C379.146 209.322 379.096 209.214 379.023 209.123L378.682 208.701L378.679 208.697C378.633 208.64 378.578 208.591 378.515 208.551L372.666 204.726L379.523 202.688L386.523 206.916C386.604 206.964 386.693 206.997 386.786 207.011C386.879 207.026 386.974 207.021 387.065 206.999C387.156 206.977 387.242 206.937 387.318 206.881C387.394 206.825 387.458 206.755 387.507 206.675C387.556 206.594 387.588 206.505 387.602 206.412C387.616 206.319 387.612 206.224 387.59 206.133C387.567 206.042 387.527 205.956 387.471 205.88C387.416 205.804 387.346 205.74 387.265 205.691L381.378 202.136L384.178 201.303C384.199 201.331 384.212 201.36 384.234 201.388C385.982 203.526 389.308 200.813 387.557 198.672C386.198 197.01 383.895 198.282 383.758 199.937L380.769 200.825L383.892 194.35C383.974 194.179 383.986 193.983 383.923 193.804C383.861 193.624 383.73 193.477 383.559 193.395C383.388 193.312 383.192 193.301 383.013 193.364C382.834 193.426 382.687 193.557 382.604 193.728L378.915 201.375L372.252 203.356L375.554 197.096C375.608 196.993 375.637 196.878 375.637 196.761C375.636 196.644 375.608 196.529 375.553 196.426C375.499 196.322 375.42 196.233 375.323 196.168C375.227 196.103 375.115 196.062 374.999 196.051L374.458 195.994C374.384 195.986 374.309 195.989 374.236 196.005L367.413 197.431L370.693 191.376L378.702 189.701C378.794 189.682 378.881 189.645 378.959 189.592C379.036 189.539 379.103 189.471 379.154 189.392C379.205 189.314 379.241 189.226 379.258 189.133C379.276 189.041 379.275 188.946 379.256 188.854C379.236 188.762 379.199 188.675 379.146 188.598C379.093 188.52 379.025 188.454 378.947 188.402C378.868 188.351 378.78 188.316 378.688 188.298C378.596 188.281 378.501 188.282 378.409 188.301L371.586 189.729L372.829 187.433C373.242 187.451 373.652 187.35 374.01 187.144C374.368 186.937 374.66 186.632 374.851 186.266C375.042 185.899 375.125 185.486 375.09 185.074C375.055 184.662 374.903 184.268 374.653 183.939C372.904 181.802 369.579 184.514 371.33 186.654C371.389 186.722 371.452 186.785 371.519 186.845L370.313 189.076L368.216 182.296C368.16 182.115 368.034 181.963 367.866 181.875C367.699 181.786 367.502 181.768 367.321 181.824C367.14 181.88 366.988 182.006 366.899 182.173C366.811 182.341 366.792 182.537 366.848 182.719L369.359 190.835L366.138 196.779L364.042 189.999C364.004 189.874 363.931 189.762 363.833 189.675C363.736 189.588 363.616 189.53 363.487 189.506L362.933 189.407C362.79 189.38 362.643 189.398 362.511 189.457C362.378 189.517 362.267 189.615 362.192 189.739L358.516 195.826L356.572 189.282L360.92 182.082C361.018 181.92 361.047 181.726 361.001 181.542C360.955 181.359 360.839 181.201 360.677 181.103C360.515 181.005 360.322 180.976 360.138 181.02C359.954 181.065 359.796 181.181 359.697 181.343L356.021 187.429L355.309 185.034C355.546 184.874 355.747 184.665 355.898 184.422C356.048 184.179 356.146 183.907 356.185 183.623C356.223 183.339 356.202 183.051 356.121 182.776C356.04 182.502 355.903 182.247 355.717 182.03C353.969 179.892 350.645 182.605 352.396 184.747C352.579 184.988 352.816 185.183 353.088 185.317C353.36 185.451 353.659 185.521 353.962 185.52L354.62 187.737L348.356 184.714C348.209 184.643 348.043 184.624 347.884 184.661C347.726 184.698 347.584 184.788 347.483 184.915C347.383 185.043 347.328 185.202 347.33 185.364C347.331 185.527 347.388 185.685 347.491 185.811C347.557 185.891 347.64 185.956 347.734 186.001L355.171 189.591L357.116 196.134L350.852 193.113C350.737 193.057 350.61 193.033 350.483 193.044C350.356 193.054 350.234 193.098 350.129 193.171L349.676 193.489C349.558 193.572 349.468 193.689 349.417 193.824C349.367 193.959 349.358 194.106 349.392 194.246L351.081 201.086L345.078 197.834L343.078 189.731C343.055 189.639 343.015 189.553 342.96 189.477C342.904 189.401 342.834 189.337 342.754 189.288C342.673 189.24 342.584 189.207 342.491 189.193C342.398 189.179 342.303 189.183 342.212 189.205C342.12 189.228 342.034 189.268 341.959 189.324C341.883 189.38 341.819 189.45 341.771 189.531C341.722 189.611 341.69 189.701 341.676 189.794C341.662 189.887 341.667 189.982 341.69 190.073L343.378 196.913L341.362 195.82C341.422 195.524 341.413 195.217 341.336 194.924C341.258 194.631 341.113 194.361 340.913 194.133C339.165 191.995 335.84 194.709 337.591 196.85C337.768 197.075 337.99 197.26 338.243 197.393C338.497 197.526 338.775 197.605 339.061 197.623C339.346 197.642 339.633 197.6 339.901 197.5C340.169 197.4 340.413 197.245 340.617 197.045L342.682 198.162L336.055 200.475C335.966 200.506 335.884 200.554 335.814 200.617C335.744 200.679 335.687 200.755 335.646 200.839C335.605 200.924 335.581 201.016 335.576 201.109C335.57 201.203 335.583 201.297 335.614 201.386C335.645 201.475 335.693 201.556 335.756 201.627C335.818 201.697 335.894 201.754 335.978 201.795C336.063 201.836 336.155 201.859 336.249 201.865C336.342 201.87 336.436 201.857 336.525 201.826L344.382 199.084L350.384 202.336L343.757 204.648C343.637 204.69 343.531 204.763 343.448 204.86C343.366 204.957 343.311 205.074 343.288 205.2L343.192 205.746C343.168 205.889 343.186 206.035 343.246 206.166C343.305 206.298 343.403 206.408 343.526 206.484L349.53 210.109L343.236 211.98L336.262 207.418C336.183 207.367 336.095 207.331 336.003 207.314C335.91 207.297 335.815 207.298 335.724 207.317C335.632 207.336 335.544 207.373 335.467 207.426C335.389 207.479 335.323 207.547 335.271 207.626C335.22 207.704 335.185 207.792 335.167 207.885C335.15 207.977 335.151 208.072 335.17 208.164C335.189 208.256 335.227 208.343 335.28 208.421C335.333 208.498 335.4 208.565 335.479 208.616L341.439 212.514L338.918 213.264C338.882 213.213 338.857 213.162 338.816 213.112C337.068 210.973 333.744 213.686 335.495 215.827C335.772 216.142 336.135 216.371 336.54 216.484C336.944 216.598 337.373 216.592 337.774 216.467C338.176 216.342 338.532 216.103 338.801 215.78C339.069 215.457 339.239 215.063 339.288 214.646L341.676 213.936L338.441 220.07C338.375 220.194 338.348 220.335 338.361 220.475C338.375 220.614 338.43 220.747 338.519 220.856C338.579 220.931 338.654 220.992 338.74 221.037C338.823 221.08 338.914 221.107 339.007 221.116C339.1 221.125 339.195 221.115 339.284 221.087C339.374 221.059 339.457 221.014 339.529 220.954C339.601 220.894 339.661 220.821 339.704 220.738L343.593 213.366L349.963 211.473L346.898 217.824C346.843 217.938 346.819 218.066 346.829 218.193C346.839 218.32 346.884 218.441 346.957 218.545L347.277 219C347.286 219.015 347.296 219.029 347.308 219.042C347.393 219.146 347.507 219.224 347.635 219.267C347.763 219.309 347.9 219.315 348.032 219.283L354.861 217.598L351.608 223.6L343.516 225.597C343.424 225.62 343.339 225.66 343.263 225.716C343.187 225.772 343.124 225.842 343.075 225.922C343.027 226.003 342.995 226.092 342.981 226.185C342.967 226.278 342.971 226.372 342.994 226.463C343.019 226.566 343.066 226.662 343.134 226.743C343.219 226.848 343.333 226.927 343.461 226.97C343.59 227.012 343.728 227.018 343.859 226.985L350.687 225.3L349.645 227.226C347.996 227.034 346.29 229.033 347.651 230.697C349.399 232.834 352.724 230.121 350.973 227.981C350.951 227.953 350.924 227.935 350.901 227.909L351.945 225.982L354.262 232.621C354.293 232.71 354.341 232.792 354.403 232.862C354.466 232.933 354.541 232.99 354.626 233.031C354.711 233.072 354.803 233.096 354.896 233.101C354.99 233.107 355.084 233.094 355.173 233.063C355.262 233.032 355.344 232.984 355.414 232.921C355.484 232.858 355.541 232.783 355.582 232.698C355.623 232.613 355.646 232.521 355.651 232.427C355.657 232.334 355.643 232.24 355.612 232.151L352.867 224.282L356.118 218.278L358.436 224.919C358.474 225.028 358.538 225.126 358.622 225.205C358.706 225.284 358.808 225.341 358.92 225.372C359.031 225.403 359.148 225.407 359.261 225.383C359.374 225.359 359.479 225.308 359.568 225.234L359.983 224.887C360.038 224.842 360.086 224.789 360.125 224.729L363.9 218.958L365.862 225.56L361.423 232.345C361.34 232.472 361.299 232.622 361.308 232.774C361.316 232.926 361.372 233.071 361.468 233.188C361.514 233.246 361.569 233.295 361.631 233.334C361.71 233.386 361.798 233.421 361.89 233.439C361.982 233.456 362.077 233.456 362.169 233.436C362.261 233.417 362.348 233.38 362.426 233.327C362.503 233.274 362.569 233.206 362.621 233.127L366.396 227.356L367.116 229.777C366.883 229.939 366.687 230.148 366.539 230.39C366.392 230.633 366.297 230.904 366.26 231.185C366.224 231.467 366.247 231.753 366.328 232.025C366.409 232.297 366.546 232.549 366.73 232.765C368.478 234.903 371.804 232.19 370.053 230.049C369.867 229.804 369.626 229.606 369.349 229.472C369.072 229.338 368.768 229.271 368.46 229.277L367.728 226.818L374.076 230.167C374.244 230.255 374.44 230.274 374.621 230.217C374.803 230.161 374.954 230.036 375.043 229.868L375.043 229.868ZM371.094 219.895L364.662 216.502L362.385 208.836L369.599 212.745L371.094 219.895ZM377.008 209.274L370.123 211.403L363.066 207.58L370.87 205.258L377.008 209.274ZM373.681 197.582L370.334 203.926L362.658 206.207L366.52 199.079L373.681 197.582ZM362.938 191.272L365.185 198.539L361.399 205.526L359.068 197.68L362.938 191.272ZM350.994 194.77L357.667 197.989L360.029 205.934L352.781 202.007L350.994 194.77ZM345.03 205.72L352.085 203.257L359.348 207.191L351.384 209.558L345.03 205.72ZM348.556 217.68L351.817 210.923L359.754 208.563L355.781 215.897L348.556 217.68ZM359.373 223.265L357.04 216.578L361.012 209.244L363.366 217.162L359.373 223.265Z" fill="white"/>
<g id="greenbox">
<path id="Vector" d="M185.383 28.3805L185.463 85.8647L266.617 85.7686L266.537 28.2843L185.383 28.3805Z" fill="#82C56D"/>
<path id="Vector_2" d="M195.601 28.3683C195.601 28.3683 217.767 84.638 266.607 77.5766L266.618 85.7682L185.463 85.8644L185.382 28.381L195.601 28.3683Z" fill="#4DA258"/>
<path id="Vector_3" d="M184.107 57.1241C184.107 57.2838 184.141 57.4418 184.208 57.5892C184.274 57.7367 184.371 57.8706 184.493 57.9833C184.616 58.096 184.761 58.1853 184.921 58.2462C185.081 58.3071 185.252 58.3382 185.424 58.338L224.333 58.2916C222.762 59.2554 221.485 60.575 220.623 62.1245C219.761 63.6741 219.344 65.4018 219.41 67.1429C219.409 67.2227 219.425 67.3019 219.457 67.3759C219.49 67.45 219.537 67.5174 219.598 67.5743C219.658 67.6313 219.73 67.6767 219.81 67.7079C219.889 67.7391 219.975 67.7555 220.061 67.7562L220.068 67.7561C220.241 67.756 220.407 67.6928 220.53 67.58C220.653 67.4673 220.723 67.3142 220.725 67.1541C220.649 65.2658 221.204 63.4017 222.315 61.8155C223.426 60.2292 225.039 58.9978 226.935 58.2887L230.212 58.2854L230.25 85.8118C230.251 86.1342 230.39 86.4433 230.637 86.671C230.884 86.8987 231.219 87.0264 231.567 87.026C231.916 87.0256 232.251 86.8972 232.497 86.6689C232.744 86.4406 232.882 86.1312 232.881 85.8088L232.844 58.7798C236.548 62.008 236.567 67.0636 236.566 67.1225C236.565 67.2837 236.633 67.4389 236.755 67.5538C236.878 67.6688 237.044 67.7342 237.219 67.7358L237.224 67.7358C237.398 67.7356 237.564 67.6723 237.687 67.5596C237.81 67.4468 237.88 67.2938 237.882 67.1336C237.884 66.8727 237.88 61.8263 234.192 58.2808L266.579 58.2417C266.752 58.2415 266.923 58.2099 267.083 58.1486C267.242 58.0873 267.387 57.9976 267.509 57.8846C267.631 57.7716 267.728 57.6374 267.794 57.4899C267.86 57.3423 267.893 57.1842 267.893 57.0245C267.893 56.8649 267.859 56.7068 267.792 56.5594C267.726 56.412 267.629 56.2781 267.507 56.1653C267.384 56.0525 267.239 55.9632 267.08 55.9022C266.92 55.8413 266.749 55.8101 266.576 55.8103L238.333 55.8443C242.824 53.8273 246.653 50.7412 249.425 46.9034C250.361 45.5279 252.55 42.3095 251.082 40.3025C250.377 39.3376 248.985 38.8487 247.037 38.8706C245.725 38.8898 243.816 39.2465 240.687 41.8593C238.882 43.3688 237.413 44.9749 233.949 50.0218C233.541 50.6181 233.171 51.157 232.833 51.6504L232.802 28.3238C232.801 28.0015 232.661 27.6928 232.414 27.4653C232.167 27.2379 231.833 27.1104 231.484 27.1108C231.135 27.1112 230.801 27.2395 230.554 27.4674C230.308 27.6954 230.17 28.0045 230.169 28.3268L230.204 52.5506C229.507 51.8752 228.661 51.0707 227.62 50.0832C223.105 45.803 221.31 44.5107 219.208 43.3783C215.563 41.4142 213.615 41.4293 212.328 41.6605C210.422 42.003 209.164 42.7534 208.689 43.8313C207.7 46.0739 210.559 48.808 211.78 49.975C214.67 52.6251 218.171 54.6381 222.022 55.8638L185.42 55.9073C185.248 55.9075 185.077 55.9391 184.917 56.0003C184.758 56.0615 184.613 56.1512 184.491 56.2642C184.369 56.3772 184.272 56.5113 184.206 56.6588C184.14 56.8064 184.106 56.9645 184.107 57.1241L184.107 57.1241ZM230.206 54.3297L230.209 55.8455L230.205 55.8531L227.035 55.8569C222.831 55.1771 216.837 53.061 212.726 49.1296C211.773 48.2194 209.243 45.7998 209.908 44.2896C210.198 43.6305 211.172 43.1066 212.578 42.8531C213.641 42.6639 215.28 42.6699 218.545 44.4281C220.544 45.5044 222.269 46.7523 226.678 50.9319C228.037 52.2205 229.296 53.4143 230.206 54.3297ZM234.992 55.8477L232.935 55.8498C232.922 55.7336 232.89 55.6199 232.84 55.5126L232.838 53.9447C233.465 52.9968 234.238 51.87 235.06 50.6732C238.443 45.7452 239.855 44.1949 241.57 42.7622C244.372 40.4198 245.975 40.1018 247.058 40.0867C247.097 40.0858 247.135 40.0856 247.173 40.0855C248.548 40.0838 249.572 40.409 249.992 40.9842C250.978 42.3337 249.041 45.1835 248.312 46.2555C244.942 51.2112 238.997 54.5471 234.992 55.8478" fill="white"/>
</g>
<g id="orangebox">
<path id="Vector_4" d="M194.425 109.077C197.701 109.077 197.706 102.846 194.425 102.846C191.149 102.846 191.143 109.077 194.425 109.077Z" fill="white"/>
<path id="Vector_5" d="M160.11 80L160 133.676L309.893 133.973L310.003 80.2973L160.11 80Z" fill="#F15B43"/>
<path id="Vector_6" d="M160.072 96.7788L160.047 109.544L309.939 109.855L309.964 97.0904L160.072 96.7788Z" fill="#65CADE"/>
<path id="Vector_7" d="M185.761 80.056L185.661 133.732L197.598 133.757L197.698 80.0815L185.761 80.056Z" fill="#65CADE"/>
</g>
<g id="yellobox">
<path id="Vector_8" d="M127.374 134L127.217 211.654L298.566 212L298.723 134.346L127.374 134Z" fill="#FFCC5D"/>
<path id="Vector_9" d="M255.064 212L242.946 211.974L263.531 134.662L275.649 134.685L255.064 212Z" fill="#82C56D"/>
<path id="Vector_10" d="M299.408 190.249L127 163.126L127.024 151.579L299.432 178.701L299.408 190.249Z" fill="#82C56D"/>
<g id="tieStyle">
<path id="Vector_11" d="M223.801 161.247C223.801 161.247 212.487 155.862 201.762 155.935C191.035 156.011 178.938 153.371 162.676 144.971L170.675 143.112L168.775 134.662C168.775 134.662 183.674 145.508 200.282 146.161C216.892 146.815 222.91 148.939 225.108 149.992L223.801 161.247Z" fill="#F15B43"/>
<path id="Vector_12" d="M223.496 161.247C223.496 161.247 220.951 160.304 217.012 159.23C216.828 158.753 216.675 158.283 216.53 157.828C215.321 154.002 217.49 153.629 220.499 149.163C222.08 149.475 223.623 149.9 225.108 150.43L223.496 161.247Z" fill="#CF2633"/>
<path id="Vector_13" d="M287.541 182.815C287.541 182.815 299.721 185.032 308.31 191.157C316.897 197.284 328.14 202.078 346.023 204.75L340.647 198.778L347 193.286C347 193.286 328.82 193.286 315.08 184.398C301.34 175.509 295.285 173.755 292.913 173.331L287.541 182.815Z" fill="#F15B43"/>
<path id="Vector_14" d="M293.223 173.331C295.368 173.704 297.451 174.282 299.432 175.053C299.206 178.032 299.684 179.148 296.947 181.054C295.912 181.83 294.75 182.485 293.495 182.998C289.985 182.126 287.541 181.753 287.541 181.753L293.223 173.331Z" fill="#CF2633"/>
<path id="Vector_15" d="M252.071 154.062C252.071 154.062 244.825 141.217 237.073 138.19C229.319 135.161 229.958 138.471 226.946 146.31C223.934 154.149 221.277 153.728 222.397 158.346C223.517 162.964 225.29 169.061 246.673 168.455C268.057 167.852 252.071 154.062 252.071 154.062" fill="#F15B43"/>
<path id="Vector_16" d="M225.108 162.239C229.599 151.874 248.892 168.451 248.892 168.451C233.281 168.911 227.551 165.853 225.108 162.239Z" fill="#CF2633"/>
<path id="Vector_17" d="M271.657 158.778C271.657 158.778 285.326 152.113 293.643 154.521C301.96 156.928 299.474 159.454 297.397 168.414C295.32 177.374 297.808 178.747 294.145 182.121C290.483 185.494 285.399 189.753 267.733 175.141C250.067 160.53 271.657 158.778 271.657 158.778Z" fill="#F15B43"/>
<path id="Vector_18" d="M290.394 184.955C291.992 176.936 277.197 175.832 270.232 175.753C268.123 175.728 266.73 175.799 266.73 175.799C279.687 185.238 286.275 186.264 290.394 184.955Z" fill="#CF2633"/>
<path id="Vector_19" d="M272.952 166.08C274.675 167.138 276.651 167.604 278.622 167.416C277.017 167.937 275.445 168.568 273.915 169.307C273.037 169.901 273.885 170.268 276.761 171.76C276.761 171.76 271.804 170.684 269.703 173.331L272.952 166.08Z" fill="#CF2633"/>
<path id="Vector_20" d="M248.892 156.899C246.037 156.628 243.343 155.616 241.165 153.996C242.65 155.66 244.012 157.405 245.241 159.218C245.812 160.42 244.527 160.141 239.973 159.434C239.973 159.434 246.656 162.057 247.073 166.08L248.892 156.899Z" fill="#CF2633"/>
<path id="Vector_21" d="M261.7 173.331C261.7 173.331 263.987 178.458 260.784 190.783C260.784 190.783 262.14 191.727 265.423 187.828C266.7 189.193 267.694 190.843 268.336 192.665C268.336 192.665 271.737 180.299 267.808 173.528L261.7 173.331Z" fill="#F15B43"/>
<path id="Vector_22" d="M268.089 190.249L266.845 190.163C266.88 190.094 270.473 183.178 266.73 180.808L267.834 180.581C271.801 183.097 268.243 189.957 268.089 190.249Z" fill="#CF2633"/>
<path id="Vector_23" d="M254.838 171.827C254.838 171.827 249.611 174.365 245.241 185.415C245.241 185.415 243.397 185.348 242.643 180.561C240.622 180.856 238.697 181.524 237 182.521C237 182.521 241.207 171.329 248.968 168.497L254.838 171.827Z" fill="#F15B43"/>
<path id="Vector_24" d="M240.402 180.581L239.973 180.414C240.097 180.171 243.036 174.454 245.717 173.331L245.919 173.701C243.393 174.76 240.431 180.524 240.402 180.581Z" fill="#CF2633"/>
<path id="Vector_25" d="M248.11 168.497L254.838 171.242C253.491 171.809 252.309 172.516 251.342 173.331C250.244 173.31 249.194 173.048 248.375 172.59C246.922 171.701 246.047 170.508 245.919 169.239C246.61 168.95 247.344 168.701 248.11 168.497" fill="#CF2633"/>
<path id="Vector_26" d="M268.461 173.551C268.969 174.342 269.385 175.185 269.703 176.065C268.704 177.024 267.46 177.706 266.099 178.04C264.569 178.355 262.972 178.066 261.66 177.238C261.585 175.898 261.29 174.579 260.784 173.331L268.461 173.551Z" fill="#CF2633"/>
<path id="Vector_27" d="M265.53 175.61C268.663 174.861 270.401 171.715 271.034 170.572C271.77 169.239 273.5 166.104 272.213 162.995C271.877 162.13 271.354 161.354 270.683 160.728C270.012 160.102 269.212 159.642 268.342 159.382C267.123 159.119 266.773 159.667 264.976 159.491C263.648 159.348 262.363 158.922 261.202 158.24C258.643 156.803 257.514 155.506 255.685 154.571C254.882 154.136 253.976 153.941 253.072 154.009C252.167 154.078 251.299 154.405 250.566 154.956C246.802 156.98 246.204 161.42 246.054 162.531C245.955 163.264 245.311 168.034 248.069 170.553C249.673 172.021 250.848 171.276 254.926 172.216C261.297 173.683 262.279 176.387 265.53 175.61" fill="#F15B43"/>
<path id="Vector_28" d="M245.674 168.485C232.595 168.682 227.47 166.532 225.197 163.946L225.108 163.664L245.919 168.325L245.674 168.485Z" fill="#CF2633"/>
<path id="Vector_29" d="M290.266 184.749C290.266 184.749 290.357 184.782 290.514 184.84C286.806 186.311 280.969 185.462 269.703 176.269L271.123 175.748L282.029 180.643L290.266 184.749Z" fill="#CF2633"/>
<path id="Vector_30" d="M223.801 161.247C223.801 161.247 212.487 155.862 201.762 155.935C191.035 156.011 178.938 153.371 162.676 144.971L170.675 143.112L168.775 134.662C168.775 134.662 183.674 145.508 200.282 146.161C216.892 146.815 222.91 148.939 225.108 149.992L223.801 161.247Z" fill="#F15B43"/>
<path id="Vector_31" d="M223.496 161.247C223.496 161.247 220.951 160.304 217.012 159.23C216.828 158.753 216.675 158.283 216.53 157.828C215.321 154.002 217.49 153.629 220.499 149.163C222.08 149.475 223.623 149.9 225.108 150.43L223.496 161.247Z" fill="#CF2633"/>
<path id="Vector_32" d="M287.541 182.815C287.541 182.815 299.721 185.032 308.31 191.157C316.897 197.284 328.14 202.078 346.023 204.75L340.647 198.778L347 193.286C347 193.286 328.82 193.286 315.08 184.398C301.34 175.509 295.285 173.755 292.913 173.331L287.541 182.815Z" fill="#F15B43"/>
<path id="Vector_33" d="M293.223 173.331C295.368 173.704 297.451 174.282 299.432 175.053C299.206 178.032 299.684 179.148 296.947 181.054C295.912 181.83 294.75 182.485 293.495 182.998C289.985 182.126 287.541 181.753 287.541 181.753L293.223 173.331Z" fill="#CF2633"/>
<path id="Vector_34" d="M252.071 154.062C252.071 154.062 244.825 141.217 237.073 138.19C229.319 135.161 229.958 138.471 226.946 146.31C223.934 154.149 221.277 153.728 222.397 158.346C223.517 162.964 225.29 169.061 246.673 168.455C268.057 167.852 252.071 154.062 252.071 154.062" fill="#F15B43"/>
<path id="Vector_35" d="M225.108 162.239C229.599 151.874 248.892 168.451 248.892 168.451C233.281 168.911 227.551 165.853 225.108 162.239Z" fill="#CF2633"/>
<path id="Vector_36" d="M271.657 158.778C271.657 158.778 285.326 152.113 293.643 154.521C301.96 156.928 299.474 159.454 297.397 168.414C295.32 177.374 297.808 178.747 294.145 182.121C290.483 185.494 285.399 189.753 267.733 175.141C250.067 160.53 271.657 158.778 271.657 158.778Z" fill="#F15B43"/>
<path id="Vector_37" d="M290.394 184.955C291.992 176.936 277.197 175.832 270.232 175.753C268.123 175.728 266.73 175.799 266.73 175.799C279.687 185.238 286.275 186.264 290.394 184.955Z" fill="#CF2633"/>
<path id="Vector_38" d="M272.952 166.08C274.675 167.138 276.651 167.604 278.622 167.416C277.017 167.937 275.445 168.568 273.915 169.307C273.037 169.901 273.885 170.268 276.761 171.76C276.761 171.76 271.804 170.684 269.703 173.331L272.952 166.08Z" fill="#CF2633"/>
<path id="Vector_39" d="M248.892 156.899C246.037 156.628 243.343 155.616 241.165 153.996C242.65 155.66 244.012 157.405 245.241 159.218C245.812 160.42 244.527 160.141 239.973 159.434C239.973 159.434 246.656 162.057 247.073 166.08L248.892 156.899Z" fill="#CF2633"/>
<path id="Vector_40" d="M261.7 173.331C261.7 173.331 263.987 178.458 260.784 190.783C260.784 190.783 262.14 191.727 265.423 187.828C266.7 189.193 267.694 190.843 268.336 192.665C268.336 192.665 271.737 180.299 267.808 173.528L261.7 173.331Z" fill="#F15B43"/>
<path id="Vector_41" d="M268.089 190.249L266.845 190.163C266.88 190.094 270.473 183.178 266.73 180.808L267.834 180.581C271.801 183.097 268.243 189.957 268.089 190.249Z" fill="#CF2633"/>
<path id="Vector_42" d="M254.838 171.827C254.838 171.827 249.611 174.365 245.241 185.415C245.241 185.415 243.397 185.348 242.643 180.561C240.622 180.856 238.697 181.524 237 182.521C237 182.521 241.207 171.329 248.968 168.497L254.838 171.827Z" fill="#F15B43"/>
<path id="Vector_43" d="M240.402 180.581L239.973 180.414C240.097 180.171 243.036 174.454 245.717 173.331L245.919 173.701C243.393 174.76 240.431 180.524 240.402 180.581Z" fill="#CF2633"/>
<path id="Vector_44" d="M248.11 168.497L254.838 171.242C253.491 171.809 252.309 172.516 251.342 173.331C250.244 173.31 249.194 173.048 248.375 172.59C246.922 171.701 246.047 170.508 245.919 169.239C246.61 168.95 247.344 168.701 248.11 168.497" fill="#CF2633"/>
<path id="Vector_45" d="M268.461 173.551C268.969 174.342 269.385 175.185 269.703 176.065C268.704 177.024 267.46 177.706 266.099 178.04C264.569 178.355 262.972 178.066 261.66 177.238C261.585 175.898 261.29 174.579 260.784 173.331L268.461 173.551Z" fill="#CF2633"/>
<path id="Vector_46" d="M265.53 175.61C268.663 174.861 270.401 171.715 271.034 170.572C271.77 169.239 273.5 166.104 272.213 162.995C271.877 162.13 271.354 161.354 270.683 160.728C270.012 160.102 269.212 159.642 268.342 159.382C267.123 159.119 266.773 159.667 264.976 159.491C263.648 159.348 262.363 158.922 261.202 158.24C258.643 156.803 257.514 155.506 255.685 154.571C254.882 154.136 253.976 153.941 253.072 154.009C252.167 154.078 251.299 154.405 250.566 154.956C246.802 156.98 246.204 161.42 246.054 162.531C245.955 163.264 245.311 168.034 248.069 170.553C249.673 172.021 250.848 171.276 254.926 172.216C261.297 173.683 262.279 176.387 265.53 175.61" fill="#F15B43"/>
<path id="Vector_47" d="M245.674 168.485C232.595 168.682 227.47 166.532 225.197 163.946L225.108 163.664L245.919 168.325L245.674 168.485Z" fill="#CF2633"/>
<path id="Vector_48" d="M290.266 184.749C290.266 184.749 290.357 184.782 290.514 184.84C286.806 186.311 280.969 185.462 269.703 176.269L271.123 175.748L282.029 180.643L290.266 184.749Z" fill="#CF2633"/>
</g>
</g>
<g id="mainyello">
<path id="Vector_49" d="M108.18 232.37L108.113 268.522L326.921 269L326.988 232.848L108.18 232.37Z" fill="#FFCC5D"/>
<path id="Vector_50" d="M96.0497 205.45L96 232.342L337.949 232.871L337.999 205.979L96.0497 205.45Z" fill="#65CADE"/>
<path id="Vector_51" d="M330.74 208.243L168.273 233.439L96 233.288L96.05 207.756L330.74 208.243Z" fill="#46C2CC"/>
<path id="Vector_52" d="M165.93 269L165.984 240.48L328.307 240.822L328.32 233.908L105.694 233.439L105.68 240.784L154.832 240.888L154.777 268.977L165.93 269Z" fill="#F39821"/>
<path id="Vector_53" d="M140.389 205.548L140.274 268.593L162.827 268.641L162.942 205.596L140.389 205.548Z" fill="#F15B43"/>
<path id="Vector_54" d="M162.022 219.61C162.722 220.261 163.308 221.002 163.76 221.808L163.738 231.386C163.327 231.033 162.87 230.726 162.377 230.471C160.11 233.878 158.724 233.418 158.724 233.418C159.45 223.863 156.5 220.504 156.5 220.504L162.022 219.61Z" fill="#CF2633"/>
<path id="Vector_55" d="M141.997 224.832C142.352 222.911 143.175 221.115 144.389 219.61L149.24 220.32C149.24 220.32 146.793 223.808 147.785 233.411C147.785 233.411 146.595 233.922 144.487 230.565C143.496 231.258 142.644 232.141 141.98 233.167L141.997 224.832Z" fill="#CF2633"/>
<path id="Vector_56" d="M156.383 218.192C154.554 217.812 152.69 217.724 150.841 217.93C148.352 218.334 141.98 213.468 141.98 213.468L155.488 207.756L163.76 212.992C163.76 212.992 161.749 219.51 159.413 219.605C157.078 219.702 156.383 218.192 156.383 218.192" fill="#CF2633"/>
<path id="Vector_57" d="M143.895 199.213C143.895 199.213 133.914 188.535 126.192 188.048C118.469 187.563 119.949 190.728 119.439 199.741C118.929 208.754 116.453 209.217 118.723 213.554C120.992 217.892 124.25 223.519 143.075 215.721C161.901 207.92 143.895 199.213 143.895 199.213" fill="#F15B43"/>
<path id="Vector_58" d="M160.013 199.128C160.013 199.128 170.75 188.492 179.027 188.042C187.304 187.592 185.706 190.75 186.22 199.773C186.734 208.792 189.386 209.267 186.938 213.596C184.489 217.924 180.978 223.539 160.831 215.647C140.685 207.753 160.013 199.128 160.013 199.128" fill="#F15B43"/>
<path id="Vector_59" d="M164.513 204.361C165.884 204.763 167.309 204.569 168.6 203.805C167.622 204.75 166.687 205.783 165.801 206.897C165.328 207.685 165.972 207.748 168.207 208.18C168.207 208.18 164.652 208.747 163.76 211.707L164.513 204.361Z" fill="#CF2633"/>
<path id="Vector_60" d="M140.878 204.384C138.81 204.777 136.663 204.575 134.72 203.805C136.191 204.752 137.595 205.787 138.925 206.902C139.636 207.69 138.663 207.75 135.294 208.167C135.294 208.167 140.649 208.753 141.98 211.707L140.878 204.384Z" fill="#CF2633"/>
<path id="Vector_61" d="M156.5 213.454C156.5 213.454 159.482 217.357 159.797 229.477C159.797 229.477 161.085 229.901 162.772 225.352C164.092 226.18 165.254 227.353 166.18 228.792C166.18 228.792 166.01 216.573 161.355 211.707L156.5 213.454Z" fill="#F15B43"/>
<path id="Vector_62" d="M165.851 227.512C165.845 227.452 165.212 221.478 163.76 219.897L163.985 219.61C165.525 221.287 166.154 227.213 166.18 227.465L165.851 227.512Z" fill="#F6978F"/>
<path id="Vector_63" d="M149.24 213.388C149.24 213.388 145.503 217.337 145.24 229.476C145.24 229.476 143.614 229.918 141.424 225.387C139.759 226.234 138.298 227.425 137.14 228.88C137.14 228.88 137.217 216.645 143.065 211.707L149.24 213.388Z" fill="#F15B43"/>
<path id="Vector_64" d="M149.24 213.388C149.24 213.388 145.503 217.337 145.24 229.476C145.24 229.476 143.614 229.918 141.424 225.387C139.759 226.234 138.298 227.425 137.14 228.88C137.14 228.88 137.217 216.645 143.065 211.707L149.24 213.388Z" fill="#F15B43"/>
<path id="Vector_65" d="M137.818 227.512L137.14 227.469C137.189 227.219 138.364 221.302 141.513 219.61L141.98 219.894C139.013 221.488 137.829 227.452 137.818 227.512Z" fill="#F6978F"/>
<path id="Vector_66" d="M141.98 213.568C142.304 212.904 142.653 212.282 143.027 211.707L149.24 214.78C148.634 216.135 148.14 217.639 147.773 219.247C146.847 219.796 145.841 219.72 144.943 219.034C143.634 217.881 142.587 215.95 141.98 213.568Z" fill="#CF2633"/>
<path id="Vector_67" d="M162.431 211.707C162.915 212.539 163.36 213.46 163.76 214.46C163.269 216.057 162.603 217.402 161.815 218.389C160.435 220.063 159.339 219.697 157.734 219.154C157.411 217.722 156.996 216.383 156.5 215.172L162.431 211.707Z" fill="#CF2633"/>
<path id="Vector_68" d="M159.663 214.775C162.412 213.288 163.133 210.184 163.395 209.056C163.7 207.74 164.417 204.648 162.284 202.408C161.711 201.777 160.987 201.274 160.167 200.935C159.347 200.597 158.453 200.433 157.553 200.456C156.32 200.571 156.15 201.124 154.394 201.472C153.093 201.717 151.75 201.715 150.45 201.465C147.602 200.97 146.15 200.198 144.14 199.92C143.252 199.778 142.337 199.865 141.499 200.171C140.662 200.476 139.936 200.989 139.403 201.649C136.433 204.374 137.172 208.243 137.358 209.213C137.479 209.851 138.274 214.011 141.627 215.356C143.581 216.139 144.475 215.194 148.616 214.857C155.085 214.331 156.812 216.318 159.663 214.775" fill="#F15B43"/>
<path id="Vector_69" d="M158.92 215.442C158.92 215.442 159.236 215.31 159.776 215.102C159.668 214.752 159.68 214.37 159.808 214.029C160.918 213.581 167.072 212.803 167.072 212.803V212.804C173.795 211.149 182.353 210.475 183.12 217.445C180.025 219.947 174.38 221.011 161.904 216.557V216.563L160.263 216.089L160.349 215.981C159.875 215.803 159.415 215.637 158.92 215.442Z" fill="#CF2633"/>
<path id="Vector_70" d="M120.2 217.415C120.881 210.752 127.932 211.105 133.831 212.62L133.826 212.617C133.826 212.617 139.273 214.01 141.599 214.976V215.344C141.838 215.451 141.98 215.516 141.98 215.516C141.848 215.574 141.728 215.62 141.597 215.676V215.681L140.884 215.982L140.869 215.978C128.527 221.111 123.104 220.046 120.2 217.415" fill="#CF2633"/>
</g>
<g id="seconorange">
<path id="Vector_71" d="M250.55 276.794C254.923 276.794 254.931 268.823 250.55 268.823C246.175 268.823 246.168 276.794 250.55 276.794Z" fill="#AFC4DB"/>
<path id="Vector_72" d="M169.11 265L169 329.014L329.89 329.396L330 265.383L169.11 265Z" fill="#F15B43"/>
<path id="Vector_73" d="M169.075 285.011L169.049 300.235L329.939 300.616L329.965 285.392L169.075 285.011Z" fill="#65CADE"/>
<path id="Vector_74" d="M196.651 265.067L196.544 329.08L209.356 329.111L209.464 265.097L196.651 265.067Z" fill="#65CADE"/>
<path id="Vector_75" d="M301.108 265.852C301.108 265.852 229.512 273.517 209.265 284.764L206.556 284.758L206.59 265.635L301.108 265.852Z" fill="#CF2633"/>
<path id="Vector_76" d="M206.747 265.091L206.714 285.1L209.431 285.106L209.464 265.097L206.747 265.091Z" fill="#46C2CC"/>
<path id="lineSideBar" d="M209.183 303.894C206.831 298.381 204.199 293.057 201.304 287.952C203.605 293.051 205.66 298.314 207.455 303.713L209.183 303.894Z" fill="#EDF2FA"/>
</g>
<g id="maincar">
<path id="Vector_77" d="M115.374 353.818L89.1108 402.419L97.0224 406.695L123.285 358.094L115.374 353.818Z" fill="#303443"/>
<path id="Vector_78" d="M307.086 355.151L299.476 359.942L329.072 406.952L336.683 402.161L307.086 355.151Z" fill="#303443"/>
<path id="Vector_79" d="M372.907 409.052H42.3842C41.793 409.053 41.2075 408.938 40.6611 408.712C40.1148 408.486 39.6182 408.155 39.1999 407.738C38.7816 407.32 38.4498 406.824 38.2233 406.278C37.9969 405.732 37.8804 405.146 37.8804 404.555C37.8804 403.964 37.9969 403.379 38.2233 402.833C38.4498 402.287 38.7816 401.791 39.1999 401.373C39.6182 400.955 40.1148 400.624 40.6611 400.399C41.2075 400.173 41.793 400.057 42.3842 400.058H372.907C386.522 400.058 396.914 396.139 403.792 388.408C415.961 374.732 413.635 353.51 413.611 353.297C413.59 353.123 413.58 352.949 413.58 352.774C413.577 348.709 411.96 344.812 409.085 341.94C406.21 339.067 402.311 337.453 398.247 337.453C394.182 337.453 390.284 339.067 387.409 341.94C384.533 344.812 382.917 348.709 382.913 352.774V356.079C382.914 356.67 382.798 357.255 382.573 357.802C382.347 358.348 382.016 358.845 381.598 359.263C381.181 359.681 380.685 360.013 380.139 360.24C379.593 360.466 379.007 360.583 378.416 360.583C377.825 360.583 377.24 360.466 376.694 360.24C376.148 360.013 375.652 359.681 375.234 359.263C374.816 358.845 374.485 358.348 374.259 357.802C374.034 357.255 373.918 356.67 373.919 356.079V352.774C373.919 346.344 376.465 340.175 381 335.617C385.536 331.058 391.691 328.481 398.121 328.448C404.551 328.414 410.733 330.928 415.315 335.44C419.897 339.951 422.507 346.093 422.573 352.523C422.867 355.429 424.678 378.465 410.512 394.386C401.852 404.118 389.201 409.052 372.907 409.052Z" fill="#303443"/>
<path id="lineSideBarFull" d="M362.44 302.645L352.526 332.373C343.911 358.208 323.982 375.925 296.759 375.14L135.572 370.498C118.5 370.006 102.134 363.577 89.2924 352.317C76.4505 341.058 67.9364 325.673 65.2163 308.812L55.6049 249.241C55.6049 249.241 106.375 246.305 142.688 267.864C179 289.423 197.73 335.696 197.73 335.696L288.073 343.41C288.073 343.41 318.371 311.459 362.44 302.645" fill="#F15B43"/>
<path id="lineSideBarx" d="M183.059 370.497C165.988 370.005 149.622 363.576 136.78 352.317C123.938 341.058 115.424 325.674 112.704 308.813L103.768 253.418C87.9375 250.112 71.7686 248.709 55.6053 249.24L65.2167 308.813C67.9367 325.674 76.4507 341.058 89.2927 352.318C102.135 363.577 118.501 370.006 135.572 370.497L296.759 375.14C300.948 375.271 305.138 374.932 309.251 374.132L183.059 370.497Z" fill="#CF2633"/>
<path id="lineSideBar_2" d="M288.073 355.651C287.726 355.651 287.38 355.635 287.031 355.606L196.689 347.895C194.323 347.693 192.066 346.806 190.194 345.344C188.323 343.882 186.917 341.907 186.148 339.659C178.509 317.506 164.28 298.218 145.368 284.381C126.457 270.544 103.767 262.819 80.3406 262.242L45.9683 261.48C42.7466 261.408 39.6832 260.069 37.4427 257.752C35.2023 255.436 33.9655 252.33 34.0007 249.108C34.036 245.885 35.3403 242.807 37.6309 240.54C39.9214 238.274 43.0134 237.001 46.2359 237C46.328 237 46.4191 237.001 46.5136 237.002L80.8826 237.766C107.939 238.434 134.217 246.957 156.515 262.296C178.814 277.635 196.17 299.127 206.469 324.156L284.177 330.791C297.084 320.599 338.058 290.871 378.106 289.858C379.713 289.817 381.312 290.093 382.812 290.671C384.313 291.248 385.684 292.115 386.849 293.223C388.014 294.33 388.95 295.656 389.602 297.125C390.255 298.594 390.612 300.178 390.652 301.784C390.693 303.391 390.417 304.991 389.84 306.491C389.262 307.991 388.395 309.363 387.287 310.528C386.18 311.693 384.854 312.628 383.385 313.281C381.916 313.933 380.333 314.29 378.726 314.331C340.012 315.311 296.484 352.321 296.049 352.697C293.829 354.602 290.999 355.65 288.073 355.651" fill="white"/>
<path id="lineSideBar_3" d="M382.972 290.718C382.758 293.753 381.42 296.6 379.22 298.703C377.021 300.806 374.116 302.013 371.074 302.09C332.362 303.069 288.835 340.08 288.397 340.454C286.177 342.361 283.348 343.409 280.422 343.409C280.075 343.409 279.729 343.394 279.381 343.364L189.038 335.653C187.289 335.502 185.593 334.977 184.066 334.112C184.799 335.941 185.505 337.783 186.148 339.66C186.917 341.907 188.323 343.882 190.194 345.344C192.066 346.806 194.323 347.692 196.689 347.894L287.031 355.606C287.38 355.636 287.726 355.651 288.074 355.651C291 355.651 293.829 354.602 296.049 352.697C296.484 352.321 340.013 315.311 378.726 314.331C381.543 314.258 384.249 313.215 386.387 311.379C388.525 309.544 389.965 307.027 390.463 304.253C390.962 301.48 390.489 298.619 389.125 296.153C387.76 293.688 385.587 291.768 382.972 290.718" fill="#D4E5F0"/>
<path id="lineSideBar_4" d="M89.6892 235.645L55.3191 234.883C53.8536 234.848 52.4063 234.549 51.0469 234C51.0323 234.205 51.0075 234.406 51.003 234.614C50.9309 237.86 52.151 241.001 54.3949 243.347C56.6389 245.693 59.7229 247.052 62.9686 247.125L97.341 247.887C115.136 248.327 132.586 252.894 148.316 261.228C164.045 269.561 177.624 281.434 187.983 295.91C178.354 278.101 164.194 263.15 146.935 252.568C129.675 241.986 109.928 236.148 89.6892 235.645" fill="#D4E5F0"/>
<path id="round" d="M336.027 303.822C338.982 303.822 338.986 299.232 336.027 299.232C333.074 299.232 333.068 303.822 336.027 303.822Z" fill="#F7F7F7"/>
<path id="round_2" d="M316.196 295.083C319.15 295.083 319.154 290.492 316.196 290.492C313.242 290.492 313.237 295.083 316.196 295.083Z" fill="#F7F7F7"/>
<path id="round_3" d="M106.572 360.027C109.526 360.027 109.531 355.436 106.572 355.436C103.618 355.436 103.614 360.027 106.572 360.027Z" fill="#F7F7F7"/>
<path id="round_4" d="M358.614 302.721C361.567 302.721 361.572 298.131 358.614 298.131C355.659 298.131 355.655 302.721 358.614 302.721Z" fill="white"/>
<path id="round_5" d="M339.333 292.438C348.194 292.438 348.209 278.667 339.333 278.667C330.471 278.667 330.456 292.438 339.333 292.438Z" fill="#F7F7F7"/>
<path id="round_6" d="M339.333 292.438C340.187 292.462 341.037 292.314 341.832 292.002C342.628 291.69 343.352 291.221 343.962 290.622C342.174 286.78 340.725 282.789 339.629 278.695C339.526 278.692 339.439 278.667 339.333 278.667C330.47 278.667 330.456 292.438 339.333 292.438" fill="#F0EFEF"/>
<path id="round_7" d="M138.787 364.618C147.648 364.618 147.663 350.845 138.787 350.845C129.925 350.845 129.91 364.618 138.787 364.618Z" fill="#F7F7F7"/>
<path id="round_8" d="M145.354 358.772C141.989 356.598 138.808 354.152 135.842 351.459C130.068 354.125 131.038 364.618 138.787 364.618C140.422 364.67 142.014 364.093 143.236 363.005C144.458 361.918 145.216 360.403 145.354 358.772Z" fill="#F0EFEF"/>
<path id="round_9" d="M78.2172 310.791C81.1707 310.791 81.1763 306.201 78.2172 306.201C75.2637 306.201 75.2581 310.791 78.2172 310.791Z" fill="#F7F7F7"/>
<path id="round_10" d="M117.329 311.343C120.283 311.343 120.287 306.751 117.329 306.751C114.375 306.751 114.37 311.343 117.329 311.343Z" fill="#F7F7F7"/>
<path id="round_11" d="M102.456 323.461C105.409 323.461 105.414 318.871 102.456 318.871C99.5013 318.871 99.4969 323.461 102.456 323.461Z" fill="#F7F7F7"/>
<path id="round_12" d="M94.7431 347.332C103.605 347.332 103.62 333.56 94.7431 333.56C85.8816 333.56 85.8669 347.332 94.7431 347.332Z" fill="#F7F7F7"/>
<path id="round_13" d="M120.083 330.255C128.945 330.255 128.96 316.483 120.083 316.483C111.222 316.483 111.207 330.255 120.083 330.255Z" fill="white"/>
<path id="round_14" d="M120.083 330.255C121.051 330.265 122.011 330.073 122.902 329.693L120.781 316.553C120.547 316.533 120.332 316.483 120.083 316.483C111.222 316.483 111.207 330.255 120.083 330.255Z" fill="#F0EFEF"/>
<path id="round_15" d="M125.592 359.451C134.454 359.451 134.469 345.68 125.592 345.68C116.731 345.68 116.715 359.451 125.592 359.451Z" fill="#F7F7F7"/>
<path id="round_16" d="M125.592 359.451C126.446 359.475 127.296 359.327 128.092 359.015C128.887 358.703 129.611 358.234 130.221 357.636C128.434 353.793 126.984 349.802 125.888 345.708C125.786 345.705 125.698 345.68 125.592 345.68C116.73 345.68 116.715 359.451 125.592 359.451" fill="#F0EFEF"/>
<path id="round_17" d="M96.9466 308.771C105.808 308.771 105.824 295 96.9466 295C88.0851 295 88.0704 308.771 96.9466 308.771Z" fill="#F0EFEF"/>
</g>
</g>
</svg>
